<?xml version="1.0" encoding="utf-8"?>
<!-- Generator: Adobe Illustrator 22.0.1, SVG Export Plug-In . SVG Version: 6.00 Build 0)  -->
<svg version="1.1" id="图层_1" xmlns="http://www.w3.org/2000/svg" xmlns:xlink="http://www.w3.org/1999/xlink" x="0px" y="0px"
	 viewBox="0 0 165 31" style="enable-background:new 0 0 165 31;" xml:space="preserve">
<style type="text/css">
	.st0{fill:#329FD9;}
	.st1{fill:#454545;}
</style>
<g>
	<path class="st0" d="M34.8,29.9c-3.3,0-6.3-1.2-8.7-3.1c1.7-1.9,3-4.2,3.6-6.7c1.2,1.5,3.1,2.4,5.1,2.4c3.7,0,6.7-3.1,6.7-6.9
		s-3-6.9-6.7-6.9c-2,0-3.9,0.9-5.1,2.4c-0.7-2.5-2-4.8-3.6-6.7c2.4-2,5.4-3.1,8.7-3.1c7.8,0,14,6.4,14,14.4
		C48.9,23.4,42.6,29.9,34.8,29.9L34.8,29.9z"/>
	<path class="st0" d="M29.2,15.5h-9.5C19.7,6.9,26.4,0,34.8,0v9.8C31.7,9.8,29.2,12.3,29.2,15.5L29.2,15.5z"/>
	<path class="st1" d="M14,8.6c-3.7,0-6.7,3.1-6.7,6.9s3,6.9,6.7,6.9c2,0,3.9-0.9,5.1-2.4c0.7,2.5,2,4.8,3.6,6.7
		c-2.4,2-5.4,3.1-8.7,3.1c-7.8,0-14-6.4-14-14.4C0,7.6,6.3,1.1,14,1.1c3.3,0,6.3,1.2,8.7,3.1c-1.7,1.9-3,4.2-3.6,6.7
		C17.9,9.5,16.1,8.6,14,8.6L14,8.6z"/>
	<path class="st1" d="M14,31v-9.8c3.1,0,5.6-2.6,5.6-5.7h9.5C29.2,24.1,22.4,31,14,31L14,31z"/>
	<polygon class="st1" points="132.6,24.8 132.6,8.6 130.9,8.6 130.9,6.4 135.1,6.4 135.1,24.9 	"/>
	<path class="st1" d="M71.2,11.3c-0.8-0.9-1.9-1.6-3.2-1.8c-3.3-0.7-6.4,1.5-7.1,4.9c-0.6,3.3,1.5,6.6,4.8,7.2
		c1.3,0.3,2.5,0.1,3.6-0.4c0.3,0.9,0.9,1.9,1.5,2.7c-1.7,0.8-3.6,1.2-5.6,0.8c-4.9-1-8.1-5.8-7.1-10.8s5.7-8.2,10.6-7.3
		c2,0.4,3.7,1.4,4.9,2.9C72.7,9.8,71.8,10.6,71.2,11.3L71.2,11.3z"/>
	<path class="st1" d="M103.6,24.8v-7.5c0-1.4-0.2-2.5-0.6-3.1s-1.1-1-2-1c-0.8,0-1.5,0.4-2,1.2c-0.6,0.8-0.8,1.8-0.8,2.9v7.5h-2.8
		V17c0-2.6-0.9-3.9-2.7-3.9c-0.8,0-1.5,0.4-2,1.2s-0.8,1.8-0.8,3v7.5h-2.7V11h2.7v2.2H90c1-1.7,2.4-2.5,4.3-2.5
		c0.9,0,1.7,0.3,2.4,0.8c0.7,0.5,0.9,1.2,1.1,2.1c1-1.9,2.5-2.9,4.5-2.9c3,0,4.2,1.9,4.2,5.6v8.5L103.6,24.8L103.6,24.8z"/>
	<path class="st1" d="M125.7,24.8v-7.5c0-1.4-0.2-2.5-0.6-3.1s-1.1-1-2-1c-0.8,0-1.5,0.4-2,1.2c-0.6,0.8-0.8,1.8-0.8,2.9v7.5h-2.8
		V17c0-2.6-0.9-3.9-2.7-3.9c-0.8,0-1.5,0.4-2,1.2s-0.8,1.8-0.8,3v7.5h-2.7V11h2.7v2.2h0.1c1-1.7,2.4-2.5,4.3-2.5
		c0.9,0,1.7,0.3,2.4,0.8c0.7,0.5,0.9,1.2,1.1,2.1c1-1.9,2.5-2.9,4.5-2.9c3,0,4.2,1.9,4.2,5.6v8.5L125.7,24.8L125.7,24.8z"/>
	<path class="st1" d="M78.3,10.9c-3.7,0-6.7,3.1-6.7,6.9s3,6.9,6.7,6.9s6.7-3.1,6.7-6.9S82.1,10.9,78.3,10.9z M78.3,22.2
		c-2.4,0-4.3-2-4.3-4.4s1.9-4.4,4.3-4.4s4.3,2,4.3,4.4C82.6,20.2,80.7,22.2,78.3,22.2z"/>
	<path class="st1" d="M144.4,6.5c-2.7,0-6.2,1.8-6.2,9.2l0,0l0,0l0,0l0,0c0,7.4,3.8,9.2,6.2,9.2c2.8,0,6.2-1.8,6.2-9.2l0,0l0,0
		C150.6,8.3,147.1,6.5,144.4,6.5z M144.4,22.5c-2.1,0-3.6-2.1-3.6-6.8s1.5-6.8,3.6-6.8s3.6,2.1,3.6,6.8
		C148,20.3,146.5,22.5,144.4,22.5z"/>
	<path class="st1" d="M165,15.6c0-7.4-3.5-9.2-6.2-9.2s-6.2,1.8-6.2,9.2l0,0l0,0l0,0l0,0c0,7.4,3.8,9.2,6.2,9.2
		C161.6,24.9,165,23,165,15.6L165,15.6C165,15.7,165,15.7,165,15.6L165,15.6L165,15.6z M158.8,22.5c-2.1,0-3.6-2.1-3.6-6.8
		s1.5-6.8,3.6-6.8s3.6,2.1,3.6,6.8C162.4,20.3,160.9,22.5,158.8,22.5z"/>
</g>
</svg>
